<svg xmlns="http://www.w3.org/2000/svg" width="1024" height="1024" viewBox="0 0 1024 1024" version="1.1">
	<path d="M 487 309.021 C 436.348 313.775, 395.183 326.090, 348.181 350.552 C 301.447 374.874, 253.093 414.265, 214.839 459.178 C 200.215 476.347, 178.808 504.239, 176.435 509.214 C 174.898 512.437, 174.898 512.903, 176.439 515.882 C 177.350 517.644, 179.229 519.517, 180.613 520.043 C 182.035 520.584, 197.797 521, 216.843 521 C 246.628 521, 250.831 520.807, 252.924 519.341 C 255.211 517.739, 255.365 517.781, 257.396 520.578 C 266.666 533.343, 288.525 557.557, 301.105 568.997 C 341.147 605.411, 387.231 631.484, 436.458 645.577 C 443.036 647.459, 449.618 649, 451.086 649 C 454.476 649, 456.234 646.895, 455.822 643.328 C 455.546 640.931, 453.940 639.638, 444.500 634.207 C 438.450 630.726, 430.273 625.411, 426.329 622.394 C 417.162 615.383, 401.631 599.206, 396.617 591.447 C 393.261 586.254, 391.632 584.845, 384.617 581.068 C 370.978 573.724, 358.359 565.445, 346.845 556.287 C 336.221 547.837, 335.881 547.445, 336.466 544.328 C 337.886 536.760, 331.894 530, 323.765 530 C 319.452 530, 318.354 530.446, 315.400 533.400 C 312.405 536.395, 312 537.420, 312 542 C 312 546.607, 312.398 547.598, 315.492 550.692 C 318.804 554.004, 319.288 554.167, 324.851 553.847 L 330.717 553.509 339.299 560.661 C 349.980 569.562, 365.694 580.088, 377.162 586.024 C 385.039 590.101, 386.388 591.238, 390.807 597.524 C 399.357 609.688, 414.115 624.235, 427.024 633.224 C 431.573 636.391, 408.978 628.016, 392.897 620.574 C 356.069 603.531, 321.252 578.635, 292.456 548.754 C 280.237 536.075, 261 513.190, 261 511.334 C 261 509.685, 278.632 490.136, 291.391 477.638 C 342.958 427.124, 401.111 394.369, 461.024 382.090 C 472.126 379.815, 495.182 377.003, 502.750 377.001 L 508 377 508 397.933 C 508 418.220, 507.936 418.885, 505.931 419.522 C 504.793 419.883, 502.995 421.601, 501.935 423.339 C 498.413 429.114, 500.086 437.103, 505.415 439.954 L 508 441.338 508 456.669 L 508 472 503 472 L 498 472 498 462.731 L 498 453.462 488 443.500 L 478 433.538 478 422.718 L 478 411.898 481.336 410.504 C 483.171 409.737, 487.671 408.557, 491.336 407.882 L 498 406.654 498 398.327 C 498 393.747, 497.600 390, 497.110 390 C 493.684 390, 478.388 393.620, 471.186 396.135 C 448.883 403.924, 427.794 419.528, 412.956 439.219 C 389.692 470.092, 382.688 513.409, 395.011 550.192 C 405.359 581.078, 428.440 607.699, 457.500 622.263 C 463.730 625.385, 479.775 630.884, 487.250 632.459 C 488.976 632.822, 490 633.687, 490 634.780 C 490 637.258, 455.984 671.001, 453.490 670.997 C 447.371 670.987, 411.412 659.852, 394.081 652.601 C 386.833 649.568, 386.626 649.382, 385.081 644.529 C 382.420 636.168, 375.158 632.933, 367.357 636.635 C 358.759 640.715, 358.874 654.960, 367.534 658.579 C 372.105 660.489, 375.889 660.361, 379.490 658.174 C 382.474 656.362, 382.499 656.366, 391.336 660.199 C 407.588 667.248, 438.220 676.752, 453.380 679.449 L 457.260 680.139 477.312 660.157 L 497.365 640.175 497.802 628.739 L 498.240 617.302 488.620 615.079 L 479 612.856 479 601.374 L 479 589.892 488.500 580.102 L 498 570.311 498 561.156 L 498 552 503 552 L 508 552 508 566.977 C 508 581.929, 507.996 581.957, 505.449 583.625 C 501.977 585.900, 500 590.066, 500 595.105 C 500 598.710, 500.571 599.853, 504 603.115 L 508 606.920 507.966 628.210 L 507.931 649.500 492.466 665.331 L 477 681.161 477 692.581 C 477 698.861, 476.770 704, 476.489 704 C 474.188 704, 453.858 700.318, 442.557 697.854 C 411.810 691.151, 376.849 677.596, 349.934 661.945 L 343.368 658.127 341.624 649.813 C 340.665 645.241, 338.747 636.680, 337.362 630.789 L 334.844 620.077 325.172 613.143 C 310.037 602.292, 296.883 590.955, 278.939 573.297 L 262.378 557 244.211 557 L 226.045 557 218.628 548.089 L 211.211 539.178 208.066 541.839 L 204.920 544.500 210.159 551 C 222.181 565.915, 234.460 579.477, 250.451 595.500 C 259.782 604.850, 267.278 612.950, 267.109 613.500 C 266.414 615.754, 266.947 622.033, 268 624.001 C 270.516 628.702, 279.283 631.524, 283.822 629.095 C 285.131 628.395, 287.808 629.942, 295.681 635.947 C 338.777 668.820, 379.741 689.589, 426.698 702.373 C 449.841 708.674, 479.778 713.694, 483.250 711.856 C 484.781 711.045, 485 709.283, 485 697.754 L 485 684.578 500.500 668.969 L 516 653.359 516 630.139 L 516 606.920 520 603.115 C 523.686 599.608, 524 598.894, 524 594.001 C 524 589.090, 523.701 588.416, 520 585 L 516 581.307 516 566.654 L 516 552 521 552 L 526 552 526 561.193 L 526 570.386 536 580.548 L 546 590.710 546 601.387 C 546 613.710, 546.897 612.669, 533.750 615.608 L 526 617.341 526 625.670 C 526 635.691, 525.161 635.421, 542.613 631.013 C 587.727 619.620, 623.923 581.494, 632.579 536.250 C 634.682 525.262, 635.173 526, 625.750 526.003 L 617.500 526.007 615.181 536.003 L 612.862 546 602.238 546 L 591.614 546 581.452 536 L 571.290 526 561.645 526 L 552 526 552 521 L 552 516 567.040 516 L 582.080 516 585.885 520 C 589.295 523.585, 590.190 524, 594.500 524 C 598.810 524, 599.705 523.585, 603.115 520 L 606.920 516 661.925 516 C 716.384 516, 716.941 516.020, 718.029 518.054 C 720.815 523.259, 729.272 525.462, 735.033 522.483 C 742.856 518.438, 742.856 505.562, 735.033 501.517 C 729.272 498.538, 720.815 500.741, 718.029 505.946 C 716.940 507.980, 716.388 508, 661.500 508 C 606.612 508, 606.060 507.980, 604.971 505.946 C 603.294 502.813, 597.942 500.008, 593.632 500.004 C 590.447 500.001, 589.055 500.710, 585.739 504.026 L 581.713 508.052 567.106 507.776 L 552.500 507.500 552.195 502.750 L 551.890 498 561.590 498 L 571.290 498 581.452 488 L 591.614 478 602.175 478 L 612.736 478 614.333 483.750 C 615.211 486.913, 616.227 491.413, 616.592 493.750 L 617.256 498 625.628 498 C 635.452 498, 635.189 498.517, 632.045 485.404 C 626.453 462.079, 616.889 444.236, 601.152 427.763 C 581.958 407.674, 556.716 394.337, 530.750 390.567 L 526 389.877 526 398.311 L 526 406.744 530.250 407.408 C 532.587 407.773, 537.087 408.789, 540.250 409.667 L 546 411.264 546 422.401 L 546 433.538 536 443.500 L 526 453.462 526 462.731 L 526 472 521 472 L 516 472 516 456.567 C 516 441.841, 516.095 441.105, 518.069 440.478 C 519.207 440.117, 521.005 438.399, 522.065 436.661 C 525.559 430.931, 523.957 423.168, 518.551 419.625 L 516 417.954 516 397.477 L 516 377 520.394 377 C 526.530 377, 543.786 378.795, 554.500 380.548 C 571.580 383.343, 595.545 397.258, 612.171 414.035 C 628.026 430.034, 640.663 451.345, 646.840 472.500 L 649.760 482.500 667.279 482.773 L 684.797 483.045 687.425 486.490 C 696.498 498.385, 715.139 487.526, 708.293 474.333 C 703.971 466.005, 694.497 464.962, 687.917 472.090 L 684.307 476 670.316 476 L 656.324 476 652.995 465.834 C 648.750 452.873, 641.153 437.731, 633.500 426.976 C 626.899 417.700, 611.185 401.367, 603.752 396.056 C 601.140 394.190, 599.177 392.489, 599.390 392.276 C 600.098 391.569, 616.311 398.173, 630.622 404.998 C 672.530 424.984, 713.482 455.756, 746.809 492.305 C 761.462 508.374, 763.328 510.718, 762.703 512.279 C 761.614 515.003, 737.817 542.222, 727.520 552.523 C 721.459 558.586, 711.325 567.864, 705 573.142 L 693.500 582.739 688 603.452 L 682.500 624.165 673.500 629.767 C 635.989 653.114, 588.136 669.928, 543.250 675.532 L 538 676.188 538 666.094 L 538 656 535.035 656 L 532.070 656 531.785 666.250 L 531.500 676.500 521 677 C 515.225 677.275, 509.938 677.864, 509.250 678.309 C 508.390 678.865, 508 682.172, 508 688.899 C 508 698.309, 507.907 698.721, 505.548 699.796 C 501.910 701.454, 499.682 706.483, 500.270 711.706 C 501.519 722.788, 514.480 726.307, 521.716 717.528 L 524.538 714.105 538.019 712.979 C 594.998 708.217, 648.644 689.272, 701.019 655.416 C 706.254 652.031, 711.085 648.602, 711.755 647.795 C 712.425 646.988, 714.349 640.516, 716.030 633.414 C 717.711 626.311, 719.286 619.824, 719.532 618.998 C 719.777 618.172, 721.649 616.973, 723.692 616.334 C 727.347 615.190, 727.493 615.250, 732.784 620.086 C 735.741 622.788, 738.866 625, 739.728 625 C 744.229 625, 780.951 589.437, 802.125 564.573 C 808.779 556.759, 808.952 556.639, 813.690 556.545 C 819.874 556.421, 823.452 554.001, 825.543 548.527 C 827.107 544.432, 827.091 543.994, 825.230 539.786 C 821.451 531.244, 812.044 529.756, 805.185 536.615 C 801.862 539.938, 801.750 540.290, 802.307 545.683 L 802.886 551.295 795.249 560.397 C 785.536 571.974, 742.450 615, 740.570 615 C 739.791 615, 737.807 613.867, 736.161 612.482 C 733.488 610.232, 733.133 609.265, 732.835 603.392 L 732.500 596.820 744.909 585.171 L 757.319 573.523 762.586 573.511 C 769.176 573.497, 772.983 570.919, 774.825 565.225 C 778.057 555.229, 767.338 545.671, 758.198 550.398 C 753.199 552.983, 751.513 555.772, 751.341 561.741 C 751.183 567.237, 751.130 567.325, 743.341 575.210 C 739.028 579.576, 733.436 584.895, 730.913 587.030 C 726.552 590.722, 726.149 590.858, 722.710 589.803 C 719.763 588.899, 718.258 589.012, 714.586 590.414 C 705.137 594.023, 702.512 605.706, 709.509 613.010 L 712.058 615.670 708.775 629.074 L 705.491 642.477 700.496 645.790 C 648.279 680.417, 594.842 699.734, 536.798 704.965 L 525.096 706.019 520.548 701.599 C 516.158 697.332, 516 696.972, 516 691.245 L 516 685.311 529.750 684.671 C 577.166 682.462, 635.039 663.550, 679.476 635.742 L 689.451 629.500 695.041 608.534 L 700.630 587.567 713.565 576.455 C 731.907 560.698, 759.440 531.201, 768.042 518.091 L 769.584 515.740 779.180 517.468 C 789.128 519.259, 801.713 519.813, 815.500 519.067 C 819.900 518.829, 827.190 519.151, 831.699 519.783 C 837.604 520.610, 840.761 520.631, 842.980 519.857 C 846.598 518.596, 849.402 513.891, 848.438 510.700 C 847.699 508.253, 834.924 490.837, 822.618 475.500 C 745.992 379.997, 652.950 323.489, 550.913 310.484 C 536.083 308.594, 500.282 307.774, 487 309.021 M 493.500 326.045 C 421.109 330.673, 349.937 360.568, 286 413.202 C 271.456 425.175, 242.263 453.919, 229.419 468.912 C 213.396 487.617, 202.075 502.461, 203.324 503.126 C 203.971 503.470, 213.614 503.521, 224.753 503.239 L 245.006 502.726 253.084 493.113 C 276.231 465.567, 308.404 436.397, 336.984 417.044 C 466.517 329.331, 609.509 342.289, 732.500 452.885 C 743.859 463.099, 758.363 478.146, 771.463 493.307 C 774.697 497.051, 778.122 500.530, 779.072 501.039 C 782.098 502.658, 804.454 504.282, 813.429 503.534 L 821.996 502.821 818.761 498.316 C 816.981 495.839, 811.721 489.241, 807.070 483.656 C 769.670 438.735, 734.896 407.222, 693.804 381.015 C 677.050 370.330, 644.641 353.967, 626.980 347.276 C 583.012 330.619, 536.833 323.274, 493.500 326.045 M 553 425.770 L 553 437.540 543.533 446.967 L 534.066 456.395 533.783 466.426 L 533.500 476.456 530.500 477.346 C 522.193 479.811, 518 484.625, 518 491.698 C 518 502.296, 527.008 509.112, 537.044 506.105 C 541.414 504.796, 547 498.764, 547 495.354 C 547 490.264, 547.557 490, 558.300 490 L 568.386 490 578.667 479.883 L 588.949 469.765 598.974 470.168 C 607.756 470.521, 609 470.368, 609 468.934 C 609 466.450, 599.233 450.915, 592.746 443.083 C 585.697 434.571, 573.856 424.961, 562.703 418.701 C 558.097 416.115, 554.030 414, 553.664 414 C 553.299 414, 553 419.296, 553 425.770 M 462.367 418.351 C 443.601 428.467, 426.725 445.763, 417.132 464.710 C 415.959 467.026, 415 469.163, 415 469.460 C 415 469.757, 419.687 470, 425.417 470 L 435.833 470 445.805 480 L 455.777 490 463.889 490 L 472 490 472 484.723 C 472 476.305, 476.552 472, 485.450 472 L 490 472 490 464.268 L 490 456.536 480.250 446.743 L 470.500 436.950 470.707 425.975 C 470.859 417.943, 470.591 415.006, 469.707 415.023 C 469.043 415.035, 465.740 416.533, 462.367 418.351 M 509 427 C 507.900 428.100, 507 429.450, 507 430 C 507 431.464, 510.780 435, 512.345 435 C 514.094 435, 517 431.770, 517 429.826 C 517 428.087, 513.911 425, 512.171 425 C 511.527 425, 510.100 425.900, 509 427 M 694.200 476.200 C 693.540 476.860, 693 478.345, 693 479.500 C 693 480.655, 693.540 482.140, 694.200 482.800 C 694.860 483.460, 696.345 484, 697.500 484 C 698.655 484, 700.140 483.460, 700.800 482.800 C 701.460 482.140, 702 480.655, 702 479.500 C 702 478.345, 701.460 476.860, 700.800 476.200 C 700.140 475.540, 698.655 475, 697.500 475 C 696.345 475, 694.860 475.540, 694.200 476.200 M 408.857 487.250 C 405.748 499.701, 405.513 523.578, 408.387 535 C 411.314 546.632, 410.515 546, 422.304 546 L 432.538 546 442.466 536.034 L 452.395 526.068 461.948 525.784 L 471.500 525.500 471.500 521 L 471.500 516.500 456.735 516.223 L 441.971 515.946 438.140 519.973 C 434.755 523.531, 433.777 524, 429.732 524 C 424.470 524, 420.077 521.014, 418.015 516.037 C 414.896 508.507, 421.089 500, 429.690 500 C 433.779 500, 434.747 500.460, 438.115 504 L 441.920 508 457.015 508 L 472.110 508 471.805 503.250 L 471.500 498.500 461.764 498 L 452.028 497.500 442.246 487.750 L 432.464 478 421.815 478 L 411.167 478 408.857 487.250 M 591.571 508.571 C 590.707 509.436, 590 510.979, 590 512 C 590 513.985, 592.494 517, 594.137 517 C 596.813 517, 599 514.752, 599 512 C 599 507.606, 594.578 505.565, 591.571 508.571 M 726 509 C 724.900 510.100, 724 511.649, 724 512.443 C 724 513.835, 727.628 517, 729.223 517 C 730.348 517, 734 513.178, 734 512 C 734 510.703, 730.297 507, 729 507 C 728.450 507, 727.100 507.900, 726 509 M 426.200 509.200 C 423.282 512.118, 426.898 517.362, 431.076 516.270 C 433.484 515.640, 434.654 511.493, 432.989 509.487 C 431.503 507.696, 427.858 507.542, 426.200 509.200 M 692.325 533.411 C 690.579 534.197, 688.390 536.001, 687.460 537.420 L 685.770 540 667.885 540 C 658.048 540, 650 540.199, 650 540.442 C 650 540.685, 648.391 546.197, 646.426 552.692 C 634.895 590.783, 607.544 622.079, 570.414 639.668 C 560.612 644.311, 559.544 645.626, 562.400 649.533 C 563.775 651.413, 563.984 651.406, 574.042 649.138 C 594.619 644.497, 620.071 635.427, 640.620 625.412 L 651.739 619.993 655.550 621.585 C 669.133 627.261, 679.308 608.500, 667.102 600.287 C 659.071 594.882, 648 600.350, 648 609.721 C 648 612.452, 647.270 612.982, 636.250 618.266 C 619.741 626.181, 598.345 634.679, 597.373 633.706 C 597.213 633.547, 600.167 631.064, 603.937 628.189 C 613.598 620.821, 628.697 604.769, 635.266 594.883 C 642.551 583.919, 649.327 569.868, 653.173 557.750 L 656.268 548 670.884 548.006 L 685.500 548.013 687.227 551.048 C 689.372 554.817, 695.140 557.384, 699.590 556.549 C 704.020 555.718, 708.697 551.134, 709.504 546.833 C 711.315 537.177, 701.317 529.365, 692.325 533.411 M 445.806 544 L 435.917 554 425.459 554 C 419.706 554, 415 554.240, 415 554.533 C 415 555.789, 420.589 565.960, 424.226 571.324 C 429.363 578.900, 439.931 590.060, 447.435 595.835 C 453.196 600.268, 467.649 609, 469.226 609 C 469.652 609, 470 604.210, 470 598.355 L 470 587.710 480 577.548 L 490 567.386 490 559.693 L 490 552 485.450 552 C 476.954 552, 472.350 547.754, 471.308 538.955 L 470.721 534 463.208 534 L 455.695 534 445.806 544 M 552 538.550 C 552 547.333, 547.501 552, 539.035 552 L 534 552 534 559.693 L 534 567.386 544 577.548 L 554 587.710 554 598.355 C 554 604.210, 554.240 609, 554.533 609 C 555.780 609, 565.961 603.413, 571.500 599.690 C 580.010 593.969, 593.396 580.719, 598.971 572.500 C 603.255 566.183, 609 555.891, 609 554.533 C 609 554.240, 604.379 554, 598.731 554 L 588.462 554 578.500 544 L 568.538 534 560.269 534 L 552 534 552 538.550 M 321.750 538.080 C 319.101 539.623, 319.433 544.845, 322.250 545.937 C 324.820 546.934, 328.312 545.207, 328.811 542.692 C 329.116 541.160, 325.740 536.970, 324.250 537.030 C 323.837 537.047, 322.712 537.519, 321.750 538.080 M 694.200 541.200 C 691.155 544.245, 693.864 549.443, 698.175 548.827 C 701.112 548.407, 702.926 543.821, 701.050 541.560 C 699.512 539.707, 695.884 539.516, 694.200 541.200 M 811.200 541.200 C 810.540 541.860, 810 543.345, 810 544.500 C 810 548.893, 815.960 550.813, 817.965 547.066 C 819.371 544.438, 819.271 543.414, 817.429 541.571 C 815.557 539.700, 812.861 539.539, 811.200 541.200 M 760.200 558.200 C 757.543 560.857, 759.473 566, 763.129 566 C 765.190 566, 768 563.404, 768 561.500 C 768 558.002, 762.658 555.742, 760.200 558.200 M 234 565.973 C 234 566.509, 242.593 575.719, 253.095 586.441 L 272.189 605.936 276.449 605.352 C 282.706 604.494, 287.746 607.172, 290.164 612.638 C 291.287 615.177, 291.811 617.907, 291.450 619.344 C 290.918 621.462, 291.892 622.586, 299.171 628.258 C 308.911 635.847, 332.954 652.379, 333.483 651.850 C 333.683 651.650, 332.539 645.865, 330.941 638.993 C 329.342 632.122, 328.027 626.239, 328.017 625.920 C 328.008 625.600, 325.863 623.836, 323.250 622 C 308.419 611.573, 282.511 589.264, 267.022 573.583 L 258.544 565 246.272 565 C 238.982 565, 234 565.395, 234 565.973 M 508.667 590.667 C 508.300 591.033, 508 592.618, 508 594.188 C 508 596.275, 508.683 597.354, 510.542 598.201 C 512.720 599.193, 513.392 599.053, 515.222 597.222 C 517.053 595.392, 517.193 594.720, 516.201 592.542 C 515.354 590.683, 514.275 590, 512.188 590 C 510.618 590, 509.033 590.300, 508.667 590.667 M 715.455 599.455 C 712.594 602.315, 712.421 603.728, 714.557 606.777 C 716.405 609.417, 721.096 609.761, 723.429 607.429 C 725.761 605.096, 725.417 600.405, 722.777 598.557 C 719.728 596.421, 718.315 596.594, 715.455 599.455 M 657.200 607.200 C 656.540 607.860, 656 609.345, 656 610.500 C 656 615.215, 662.205 616.839, 664.124 612.626 C 666.265 607.929, 660.774 603.626, 657.200 607.200 M 275.452 615.433 C 272.300 620.244, 278.310 624.548, 282.429 620.429 C 284.381 618.476, 284.382 617.991, 282.443 615.223 C 280.403 612.310, 277.440 612.399, 275.452 615.433 M 370.200 644.200 C 367.543 646.857, 369.473 652, 373.129 652 C 375.190 652, 378 649.404, 378 647.500 C 378 644.002, 372.658 641.742, 370.200 644.200 M 509.046 707.445 C 505.631 711.559, 511.246 716.754, 515.024 712.976 C 517.411 710.589, 517.483 709.626, 515.429 707.571 C 513.464 705.607, 510.618 705.551, 509.046 707.445" stroke="none" fill="#1d4ed8" fill-rule="evenodd"/>
</svg>